<?xml version="1.0" encoding="us-ascii" standalone="no"?><svg xmlns="http://www.w3.org/2000/svg" xmlns:xlink="http://www.w3.org/1999/xlink" contentStyleType="text/css" height="503.2px" preserveAspectRatio="none" style="width:687px;height:503px;background:#FFFFFF;" version="1.1" viewBox="0 0 687 503" width="687.2px" zoomAndPan="magnify"><defs/><g><text fill="#888888" font-family="sans-serif" font-size="8" lengthAdjust="spacing" textLength="68" x="608" y="8.6328">25 &#1092;&#1077;&#1074;&#1088;&#1072;&#1083;&#1103; 2024</text><text fill="#000000" font-family="sans-serif" font-size="11.2" font-weight="bold" lengthAdjust="spacing" textLength="88.8" x="293.6" y="31.5266">AuthApi service</text><g id="elem_Api"><rect fill="#F1F1F1" height="113.8781" style="stroke:#181818;stroke-width:0.4000000000000001;" width="287.2" x="31.6" y="70.7375"/><text fill="#000000" font-family="sans-serif" font-size="11.2" lengthAdjust="spacing" textLength="16" x="167.2" y="84.4234">Api</text><line style="stroke:#181818;stroke-width:0.4000000000000001;" x1="32.4" x2="318" y1="88.8344" y2="88.8344"/><text fill="#000000" font-family="sans-serif" font-size="11.2" lengthAdjust="spacing" textLength="268.8" x="36.4" y="104.1203">auth.registers(request: UserRequest): UserResponse</text><text fill="#000000" font-family="sans-serif" font-size="11.2" lengthAdjust="spacing" textLength="248.8" x="36.4" y="119.0172">auth.login(request: UserRequest): UserResponse</text><text fill="#000000" font-family="sans-serif" font-size="11.2" lengthAdjust="spacing" textLength="248.8" x="36.4" y="133.9141">auth.refresh_token(request: Request): Response</text><text fill="#000000" font-family="sans-serif" font-size="11.2" lengthAdjust="spacing" textLength="209.6" x="36.4" y="148.8109">auth.logout(request: Request): Response</text><text fill="#000000" font-family="sans-serif" font-size="11.2" lengthAdjust="spacing" textLength="277.6" x="36.4" y="163.7078">users.get_users(request: Request): list[UserResponse]</text><text fill="#000000" font-family="sans-serif" font-size="11.2" lengthAdjust="spacing" textLength="252" x="36.4" y="178.6047">users.get_user(request: Request): UserResponse</text></g><!--class UserRequest--><g id="elem_UserRequest"><rect codeLine="13" fill="#F1F1F1" height="38.4" id="UserRequest" rx="2" ry="2" style="stroke:#181818;stroke-width:0.4000000000000001;" width="91.2" x="5.6" y="313.9375"/><ellipse cx="17.6" cy="326.7375" fill="#ADD1B2" rx="8.8" ry="8.8" style="stroke:#181818;stroke-width:0.8000000000000002;"/><path d="M16.6875,327.375 L16.6875,329.375 L20.15,329.375 L20.15,328.6375 Q20.15,328.15 20.3375,327.9375 Q20.5375,327.725 20.8375,327.725 Q21.1375,327.725 21.325,327.9375 Q21.5125,328.15 21.5125,328.6375 L21.5125,330.7375 L15.1125,330.7375 Q14.6125,330.7375 14.4,330.55 Q14.2,330.3625 14.2,330.05 Q14.2,329.75 14.4125,329.5625 Q14.625,329.375 15.1125,329.375 L15.325,329.375 L15.325,324.05 L15.1125,324.05 Q14.6125,324.05 14.4,323.8625 Q14.2,323.675 14.2,323.3625 Q14.2,323.0625 14.4,322.875 Q14.6125,322.6875 15.1125,322.6875 L21.2125,322.6875 L21.2125,324.7625 Q21.2125,325.25 21.025,325.4625 Q20.85,325.6625 20.5375,325.6625 Q20.2375,325.6625 20.05,325.4625 Q19.8625,325.25 19.8625,324.7625 L19.8625,324.05 L16.6875,324.05 L16.6875,326.0125 L17.875,326.0125 Q17.875,325.4875 17.975,325.3375 Q18.1875,325.0125 18.5625,325.0125 Q18.8625,325.0125 19.05,325.225 Q19.2375,325.425 19.2375,325.9125 L19.2375,327.4875 Q19.2375,327.925 19.1375,328.075 Q18.925,328.3875 18.5625,328.3875 Q18.1875,328.3875 17.975,328.0625 Q17.875,327.9125 17.875,327.375 L16.6875,327.375 Z " fill="#000000"/><text fill="#000000" font-family="sans-serif" font-size="11.2" lengthAdjust="spacing" textLength="65.6" x="28.8" y="331.375">UserRequest</text><line style="stroke:#181818;stroke-width:0.4000000000000001;" x1="6.4" x2="96" y1="339.5375" y2="339.5375"/><line style="stroke:#181818;stroke-width:0.4000000000000001;" x1="6.4" x2="96" y1="345.9375" y2="345.9375"/></g><!--class UserResponse--><g id="elem_UserResponse"><rect codeLine="14" fill="#F1F1F1" height="38.4" id="UserResponse" rx="2" ry="2" style="stroke:#181818;stroke-width:0.4000000000000001;" width="100" x="125.2" y="313.9375"/><ellipse cx="137.2" cy="326.7375" fill="#ADD1B2" rx="8.8" ry="8.8" style="stroke:#181818;stroke-width:0.8000000000000002;"/><path d="M136.2875,327.375 L136.2875,329.375 L139.75,329.375 L139.75,328.6375 Q139.75,328.15 139.9375,327.9375 Q140.1375,327.725 140.4375,327.725 Q140.7375,327.725 140.925,327.9375 Q141.1125,328.15 141.1125,328.6375 L141.1125,330.7375 L134.7125,330.7375 Q134.2125,330.7375 134,330.55 Q133.8,330.3625 133.8,330.05 Q133.8,329.75 134.0125,329.5625 Q134.225,329.375 134.7125,329.375 L134.925,329.375 L134.925,324.05 L134.7125,324.05 Q134.2125,324.05 134,323.8625 Q133.8,323.675 133.8,323.3625 Q133.8,323.0625 134,322.875 Q134.2125,322.6875 134.7125,322.6875 L140.8125,322.6875 L140.8125,324.7625 Q140.8125,325.25 140.625,325.4625 Q140.45,325.6625 140.1375,325.6625 Q139.8375,325.6625 139.65,325.4625 Q139.4625,325.25 139.4625,324.7625 L139.4625,324.05 L136.2875,324.05 L136.2875,326.0125 L137.475,326.0125 Q137.475,325.4875 137.575,325.3375 Q137.7875,325.0125 138.1625,325.0125 Q138.4625,325.0125 138.65,325.225 Q138.8375,325.425 138.8375,325.9125 L138.8375,327.4875 Q138.8375,327.925 138.7375,328.075 Q138.525,328.3875 138.1625,328.3875 Q137.7875,328.3875 137.575,328.0625 Q137.475,327.9125 137.475,327.375 L136.2875,327.375 Z " fill="#000000"/><text fill="#000000" font-family="sans-serif" font-size="11.2" lengthAdjust="spacing" textLength="74.4" x="148.4" y="331.375">UserResponse</text><line style="stroke:#181818;stroke-width:0.4000000000000001;" x1="126" x2="224.4" y1="339.5375" y2="339.5375"/><line style="stroke:#181818;stroke-width:0.4000000000000001;" x1="126" x2="224.4" y1="345.9375" y2="345.9375"/></g><!--class UserService--><g id="elem_UserService"><rect codeLine="15" fill="#F1F1F1" height="157.575" id="UserService" rx="2" ry="2" style="stroke:#181818;stroke-width:0.4000000000000001;" width="324.8" x="253.6" y="254.3375"/><ellipse cx="382.2" cy="267.1375" fill="#ADD1B2" rx="8.8" ry="8.8" style="stroke:#181818;stroke-width:0.8000000000000002;"/><path d="M384.4125,263.8375 Q384.5375,263.6625 384.6875,263.575 Q384.8375,263.4875 385.0125,263.4875 Q385.3125,263.4875 385.5,263.7 Q385.6875,263.9 385.6875,264.3875 L385.6875,265.55 Q385.6875,266.0375 385.5,266.25 Q385.3125,266.4625 385.0125,266.4625 Q384.7375,266.4625 384.575,266.3 Q384.4125,266.15 384.325,265.7375 Q384.2875,265.45 384.1375,265.3 Q383.875,265 383.3875,264.825 Q382.9,264.65 382.4,264.65 Q381.7875,264.65 381.275,264.9125 Q380.775,265.175 380.375,265.775 Q379.9875,266.375 379.9875,267.2 L379.9875,268.075 Q379.9875,269.0625 380.7,269.725 Q381.4125,270.375 382.6875,270.375 Q383.4375,270.375 383.9625,270.175 Q384.275,270.05 384.6125,269.7 Q384.825,269.4875 384.9375,269.425 Q385.0625,269.3625 385.225,269.3625 Q385.4875,269.3625 385.6875,269.575 Q385.9,269.775 385.9,270.05 Q385.9,270.325 385.625,270.65 Q385.225,271.1125 384.5875,271.375 Q383.725,271.7375 382.6875,271.7375 Q381.475,271.7375 380.5125,271.2375 Q379.725,270.8375 379.175,269.9875 Q378.625,269.125 378.625,268.1 L378.625,267.175 Q378.625,266.1125 379.1125,265.2 Q379.6125,264.275 380.4875,263.7875 Q381.3625,263.2875 382.35,263.2875 Q382.9375,263.2875 383.45,263.425 Q383.975,263.55 384.4125,263.8375 Z " fill="#000000"/><text fill="#000000" font-family="sans-serif" font-size="11.2" lengthAdjust="spacing" textLength="60.8" x="398.6" y="271.775">UserService</text><line style="stroke:#181818;stroke-width:0.4000000000000001;" x1="254.4" x2="577.6" y1="279.9375" y2="279.9375"/><line style="stroke:#181818;stroke-width:0.4000000000000001;" x1="254.4" x2="577.6" y1="286.3375" y2="286.3375"/><text fill="#000000" font-family="sans-serif" font-size="11.2" lengthAdjust="spacing" textLength="144.8" x="258.4" y="301.6234">create_user(data: dict): User</text><text fill="#000000" font-family="sans-serif" font-size="11.2" lengthAdjust="spacing" textLength="139.2" x="258.4" y="316.5203">get_user(user_id: str): User</text><text fill="#000000" font-family="sans-serif" font-size="11.2" lengthAdjust="spacing" textLength="179.2" x="258.4" y="331.4172">authenticate(credentials: dict): User</text><text fill="#000000" font-family="sans-serif" font-size="11.2" lengthAdjust="spacing" textLength="179.2" x="258.4" y="346.3141">get_by_email(user_email: str): User</text><text fill="#000000" font-family="sans-serif" font-size="11.2" lengthAdjust="spacing" textLength="3.2" x="258.4" y="361.2109">&#160;</text><text fill="#000000" font-family="sans-serif" font-size="11.2" lengthAdjust="spacing" textLength="315.2" x="258.4" y="376.1078">save_login_history(data: dict, request_data: dict): LoginHistory</text><text fill="#000000" font-family="sans-serif" font-size="11.2" lengthAdjust="spacing" textLength="3.2" x="258.4" y="391.0047">&#160;</text><text fill="#000000" font-family="sans-serif" font-size="11.2" lengthAdjust="spacing" textLength="192.8" x="258.4" y="405.9016">_hashed_password(password: str): str</text></g><!--class JWTService--><g id="elem_JWTService"><rect codeLine="25" fill="#F1F1F1" height="157.575" id="JWTService" rx="2" ry="2" style="stroke:#181818;stroke-width:0.4000000000000001;" width="334.4" x="347.2" y="48.7375"/><ellipse cx="481" cy="61.5375" fill="#ADD1B2" rx="8.8" ry="8.8" style="stroke:#181818;stroke-width:0.8000000000000002;"/><path d="M483.2125,58.2375 Q483.3375,58.0625 483.4875,57.975 Q483.6375,57.8875 483.8125,57.8875 Q484.1125,57.8875 484.3,58.1 Q484.4875,58.3 484.4875,58.7875 L484.4875,59.95 Q484.4875,60.4375 484.3,60.65 Q484.1125,60.8625 483.8125,60.8625 Q483.5375,60.8625 483.375,60.7 Q483.2125,60.55 483.125,60.1375 Q483.0875,59.85 482.9375,59.7 Q482.675,59.4 482.1875,59.225 Q481.7,59.05 481.2,59.05 Q480.5875,59.05 480.075,59.3125 Q479.575,59.575 479.175,60.175 Q478.7875,60.775 478.7875,61.6 L478.7875,62.475 Q478.7875,63.4625 479.5,64.125 Q480.2125,64.775 481.4875,64.775 Q482.2375,64.775 482.7625,64.575 Q483.075,64.45 483.4125,64.1 Q483.625,63.8875 483.7375,63.825 Q483.8625,63.7625 484.025,63.7625 Q484.2875,63.7625 484.4875,63.975 Q484.7,64.175 484.7,64.45 Q484.7,64.725 484.425,65.05 Q484.025,65.5125 483.3875,65.775 Q482.525,66.1375 481.4875,66.1375 Q480.275,66.1375 479.3125,65.6375 Q478.525,65.2375 477.975,64.3875 Q477.425,63.525 477.425,62.5 L477.425,61.575 Q477.425,60.5125 477.9125,59.6 Q478.4125,58.675 479.2875,58.1875 Q480.1625,57.6875 481.15,57.6875 Q481.7375,57.6875 482.25,57.825 Q482.775,57.95 483.2125,58.2375 Z " fill="#000000"/><text fill="#000000" font-family="sans-serif" font-size="11.2" lengthAdjust="spacing" textLength="60" x="497.4" y="66.175">JWTService</text><line style="stroke:#181818;stroke-width:0.4000000000000001;" x1="348" x2="680.8" y1="74.3375" y2="74.3375"/><text fill="#000000" font-family="sans-serif" font-size="11.2" lengthAdjust="spacing" textLength="69.6" x="352" y="89.6234">assess_token</text><text fill="#000000" font-family="sans-serif" font-size="11.2" lengthAdjust="spacing" textLength="70.4" x="352" y="104.5203">refresh_token</text><line style="stroke:#181818;stroke-width:0.4000000000000001;" x1="348" x2="680.8" y1="110.5313" y2="110.5313"/><text fill="#000000" font-family="sans-serif" font-size="11.2" lengthAdjust="spacing" textLength="218.4" x="352" y="125.8172">write_token(user: User, type_token: str): str</text><text fill="#000000" font-family="sans-serif" font-size="11.2" lengthAdjust="spacing" textLength="324.8" x="352" y="140.7141">read_token(token: str, user_manager: UserService): User | None</text><text fill="#000000" font-family="sans-serif" font-size="11.2" lengthAdjust="spacing" textLength="218.4" x="352" y="155.6109">destroy_token(token: str, user: User): None</text><text fill="#000000" font-family="sans-serif" font-size="11.2" lengthAdjust="spacing" textLength="3.2" x="352" y="170.5078">&#160;</text><text fill="#000000" font-family="sans-serif" font-size="11.2" lengthAdjust="spacing" textLength="144.8" x="352" y="185.4047">_generate_jwt(data: dict): str</text><text fill="#000000" font-family="sans-serif" font-size="11.2" lengthAdjust="spacing" textLength="177.6" x="352" y="200.3016">_decode_jwt(encoded_jwt: str): dict</text></g><!--class User--><g id="elem_User"><rect codeLine="36" fill="#F1F1F1" height="38.4" id="User" rx="2" ry="2" style="stroke:#181818;stroke-width:0.4000000000000001;" width="48.8" x="342.8" y="459.9375"/><ellipse cx="354.8" cy="472.7375" fill="#ADD1B2" rx="8.8" ry="8.8" style="stroke:#181818;stroke-width:0.8000000000000002;"/><path d="M353.8875,473.375 L353.8875,475.375 L357.35,475.375 L357.35,474.6375 Q357.35,474.15 357.5375,473.9375 Q357.7375,473.725 358.0375,473.725 Q358.3375,473.725 358.525,473.9375 Q358.7125,474.15 358.7125,474.6375 L358.7125,476.7375 L352.3125,476.7375 Q351.8125,476.7375 351.6,476.55 Q351.4,476.3625 351.4,476.05 Q351.4,475.75 351.6125,475.5625 Q351.825,475.375 352.3125,475.375 L352.525,475.375 L352.525,470.05 L352.3125,470.05 Q351.8125,470.05 351.6,469.8625 Q351.4,469.675 351.4,469.3625 Q351.4,469.0625 351.6,468.875 Q351.8125,468.6875 352.3125,468.6875 L358.4125,468.6875 L358.4125,470.7625 Q358.4125,471.25 358.225,471.4625 Q358.05,471.6625 357.7375,471.6625 Q357.4375,471.6625 357.25,471.4625 Q357.0625,471.25 357.0625,470.7625 L357.0625,470.05 L353.8875,470.05 L353.8875,472.0125 L355.075,472.0125 Q355.075,471.4875 355.175,471.3375 Q355.3875,471.0125 355.7625,471.0125 Q356.0625,471.0125 356.25,471.225 Q356.4375,471.425 356.4375,471.9125 L356.4375,473.4875 Q356.4375,473.925 356.3375,474.075 Q356.125,474.3875 355.7625,474.3875 Q355.3875,474.3875 355.175,474.0625 Q355.075,473.9125 355.075,473.375 L353.8875,473.375 Z " fill="#000000"/><text fill="#000000" font-family="sans-serif" font-size="11.2" lengthAdjust="spacing" textLength="23.2" x="366" y="477.375">User</text><line style="stroke:#181818;stroke-width:0.4000000000000001;" x1="343.6" x2="390.8" y1="485.5375" y2="485.5375"/><line style="stroke:#181818;stroke-width:0.4000000000000001;" x1="343.6" x2="390.8" y1="491.9375" y2="491.9375"/></g><!--class LoginHistory--><g id="elem_LoginHistory"><rect codeLine="37" fill="#F1F1F1" height="38.4" id="LoginHistory" rx="2" ry="2" style="stroke:#181818;stroke-width:0.4000000000000001;" width="88" x="420" y="459.9375"/><ellipse cx="432" cy="472.7375" fill="#ADD1B2" rx="8.8" ry="8.8" style="stroke:#181818;stroke-width:0.8000000000000002;"/><path d="M431.0875,473.375 L431.0875,475.375 L434.55,475.375 L434.55,474.6375 Q434.55,474.15 434.7375,473.9375 Q434.9375,473.725 435.2375,473.725 Q435.5375,473.725 435.725,473.9375 Q435.9125,474.15 435.9125,474.6375 L435.9125,476.7375 L429.5125,476.7375 Q429.0125,476.7375 428.8,476.55 Q428.6,476.3625 428.6,476.05 Q428.6,475.75 428.8125,475.5625 Q429.025,475.375 429.5125,475.375 L429.725,475.375 L429.725,470.05 L429.5125,470.05 Q429.0125,470.05 428.8,469.8625 Q428.6,469.675 428.6,469.3625 Q428.6,469.0625 428.8,468.875 Q429.0125,468.6875 429.5125,468.6875 L435.6125,468.6875 L435.6125,470.7625 Q435.6125,471.25 435.425,471.4625 Q435.25,471.6625 434.9375,471.6625 Q434.6375,471.6625 434.45,471.4625 Q434.2625,471.25 434.2625,470.7625 L434.2625,470.05 L431.0875,470.05 L431.0875,472.0125 L432.275,472.0125 Q432.275,471.4875 432.375,471.3375 Q432.5875,471.0125 432.9625,471.0125 Q433.2625,471.0125 433.45,471.225 Q433.6375,471.425 433.6375,471.9125 L433.6375,473.4875 Q433.6375,473.925 433.5375,474.075 Q433.325,474.3875 432.9625,474.3875 Q432.5875,474.3875 432.375,474.0625 Q432.275,473.9125 432.275,473.375 L431.0875,473.375 Z " fill="#000000"/><text fill="#000000" font-family="sans-serif" font-size="11.2" lengthAdjust="spacing" textLength="62.4" x="443.2" y="477.375">LoginHistory</text><line style="stroke:#181818;stroke-width:0.4000000000000001;" x1="420.8" x2="507.2" y1="485.5375" y2="485.5375"/><line style="stroke:#181818;stroke-width:0.4000000000000001;" x1="420.8" x2="507.2" y1="491.9375" y2="491.9375"/></g><!--reverse link Api to UserRequest--><g id="link_Api_UserRequest"><path codeLine="39" d="M136.1657,192.5569 C109.8537,235.8449 80.032,284.9055 62.424,313.8655 " fill="none" id="Api-backto-UserRequest" style="stroke:#181818;stroke-width:0.8000000000000002;"/><polygon fill="#181818" points="141.152,184.3535,135.9243,186.7931,136.1657,192.5569,141.3933,190.1173,141.152,184.3535" style="stroke:#181818;stroke-width:0.8000000000000002;"/></g><!--reverse link Api to UserResponse--><g id="link_Api_UserResponse"><path codeLine="40" d="M175.2,193.9535 C175.2,237.2415 175.2,284.9055 175.2,313.8655 " fill="none" id="Api-backto-UserResponse" style="stroke:#181818;stroke-width:0.8000000000000002;"/><polygon fill="#181818" points="175.2,184.3535,172,189.1535,175.2,193.9535,178.4,189.1535,175.2,184.3535" style="stroke:#181818;stroke-width:0.8000000000000002;"/></g><!--reverse link Api to UserService--><g id="link_Api_UserService"><path codeLine="41" d="M248.6451,190.5586 C274.1251,212.1426 296.376,230.9935 323.872,254.2895 " fill="none" id="Api-backto-UserService" style="stroke:#181818;stroke-width:0.8000000000000002;stroke-dasharray:7.0,7.0;"/><polygon fill="none" points="241.32,184.3535,242.9142,189.8977,248.6451,190.5586,247.0509,185.0143,241.32,184.3535" style="stroke:#181818;stroke-width:0.8000000000000002;"/></g><!--reverse link Api to JWTService--><g id="link_Api_JWTService"><path codeLine="42" d="M328.56,127.5375 C337.848,127.5375 337.536,127.5375 346.824,127.5375 " fill="none" id="Api-backto-JWTService" style="stroke:#181818;stroke-width:0.8000000000000002;stroke-dasharray:7.0,7.0;"/><polygon fill="none" points="318.96,127.5375,323.76,130.7375,328.56,127.5375,323.76,124.3375,318.96,127.5375" style="stroke:#181818;stroke-width:0.8000000000000002;"/></g><!--reverse link UserService to User--><g id="link_UserService_User"><path codeLine="44" d="M386.5253,421.1518 C380.4613,439.0878 377.64,447.4495 373.416,459.9375 " fill="none" id="UserService-backto-User" style="stroke:#181818;stroke-width:0.8000000000000002;"/><polygon fill="#181818" points="389.6,412.0575,385.0312,415.5797,386.5253,421.1518,391.0941,417.6295,389.6,412.0575" style="stroke:#181818;stroke-width:0.8000000000000002;"/></g><!--reverse link UserService to LoginHistory--><g id="link_UserService_LoginHistory"><path codeLine="45" d="M444.9953,421.1677 C450.9553,439.1037 453.736,447.4495 457.88,459.9375 " fill="none" id="UserService-backto-LoginHistory" style="stroke:#181818;stroke-width:0.8000000000000002;"/><polygon fill="#181818" points="441.968,412.0575,440.4449,417.6217,444.9953,421.1677,446.5184,415.6035,441.968,412.0575" style="stroke:#181818;stroke-width:0.8000000000000002;"/></g><!--SRC=[bLDDJyCm3BttLqIJa3QqzGVijXj2m84F8OHGb3McpUYQagIRAk2_uyGjIwI2H0wHupu_syzk1KA2OMTIE9ZFf6JNUDWJdjaYSyhLm3QTgpQjOXRCGHMGPNgxWy8nx_l861w1YDn0gQm3O-S6tZkmRiqUCEIM7elnPLlTM3Y5rRfKpVz23BmQi1Lt-WsYq5FOP1RTkJ-n0TnXGfkNu7YmfW9gxF8vBknb8d8gC6dcAuC6vUtZXbFN02ngOMrmtP7-97bX02T6kN1sOisaAiOi0V5JYh-uacjcdOa1NXYViV2ZHpxf7wAsqrJRdiDUg9heWfam1g0L1-1Xehn2cRJfe-AMR1259mLVUVW5eOc5Ly9M87cBdH-raVFH61FYZGAICfUFzuamw0DhQJU28zaMId0q2hMZzV7jK0jBvlfsSCUPY4J88U3qVHc6plUY4UL8CjGogC8-sOrkQ0ybTcvq_miBuJ4iu4c64XemVigxeqk7F9R59HHQ4W0QRqflZzLxTBffevsAxl_ayzKgsSNKDooZT-eyZpiTV4QLbSkZQMHP148cgOyDiKr-I0hw1W00]--></g></svg>