<?xml version="1.0" encoding="us-ascii" standalone="no"?><svg xmlns="http://www.w3.org/2000/svg" xmlns:xlink="http://www.w3.org/1999/xlink" contentStyleType="text/css" height="1502.4px" preserveAspectRatio="none" style="width:1440px;height:1502px;background:#FFFFFF;" version="1.1" viewBox="0 0 1440 1502" width="1440px" zoomAndPan="magnify"><defs/><g><text fill="#000000" font-family="sans-serif" font-size="11.2" font-weight="bold" lengthAdjust="spacing" textLength="88.8" x="672.4" y="35.5266">AuthApi service</text><rect fill="#DDDDDD" height="1444.1672" style="stroke:#181818;stroke-width:0.4000000000000001;" width="268" x="241.6" y="47.9375"/><text fill="#000000" font-family="sans-serif" font-size="10.4" font-weight="bold" lengthAdjust="spacing" textLength="16.8" x="367.2" y="59.1602">Api</text><rect fill="#DDDDDD" height="1444.1672" style="stroke:#181818;stroke-width:0.4000000000000001;" width="164" x="596.4" y="47.9375"/><text fill="#000000" font-family="sans-serif" font-size="10.4" font-weight="bold" lengthAdjust="spacing" textLength="46.4" x="655.2" y="59.1602">Schemas</text><rect fill="#DDDDDD" height="1444.1672" style="stroke:#181818;stroke-width:0.4000000000000001;" width="354.8" x="778" y="47.9375"/><text fill="#000000" font-family="sans-serif" font-size="10.4" font-weight="bold" lengthAdjust="spacing" textLength="43.2" x="933.8" y="59.1602">Services</text><rect fill="#DDDDDD" height="1444.1672" style="stroke:#181818;stroke-width:0.4000000000000001;" width="109.6" x="1150.4" y="47.9375"/><text fill="#000000" font-family="sans-serif" font-size="10.4" font-weight="bold" lengthAdjust="spacing" textLength="93.6" x="1158.4" y="59.1602">Models &#171;Postgres&#187;</text><rect fill="#008000" height="553.7188" style="stroke:#181818;stroke-width:0.8000000000000002;" width="8" x="1305.2" y="497.5266"/><rect fill="#008000" height="147.5641" style="stroke:#181818;stroke-width:0.8000000000000002;" width="8" x="1305.2" y="1243.8422"/><rect fill="#008000" height="769.3844" style="stroke:#181818;stroke-width:0.8000000000000002;" width="8" x="1388" y="688.0875"/><line style="stroke:#181818;stroke-width:0.4000000000000001;stroke-dasharray:5.0,5.0;" x1="20.8" x2="20.8" y1="110.0344" y2="1496.9047"/><line style="stroke:#181818;stroke-width:0.4000000000000001;stroke-dasharray:5.0,5.0;" x1="309.6" x2="309.6" y1="110.0344" y2="1496.9047"/><line style="stroke:#181818;stroke-width:0.4000000000000001;stroke-dasharray:5.0,5.0;" x1="444" x2="444" y1="110.0344" y2="1496.9047"/><line style="stroke:#181818;stroke-width:0.4000000000000001;stroke-dasharray:5.0,5.0;" x1="634.8" x2="634.8" y1="110.0344" y2="1496.9047"/><line style="stroke:#181818;stroke-width:0.4000000000000001;stroke-dasharray:5.0,5.0;" x1="717.2" x2="717.2" y1="110.0344" y2="1496.9047"/><line style="stroke:#181818;stroke-width:0.4000000000000001;stroke-dasharray:5.0,5.0;" x1="833.2" x2="833.2" y1="110.0344" y2="1496.9047"/><line style="stroke:#181818;stroke-width:0.4000000000000001;stroke-dasharray:5.0,5.0;" x1="1077.6" x2="1077.6" y1="110.0344" y2="1496.9047"/><line style="stroke:#181818;stroke-width:0.4000000000000001;stroke-dasharray:5.0,5.0;" x1="1167.2" x2="1167.2" y1="110.0344" y2="1496.9047"/><line style="stroke:#181818;stroke-width:0.4000000000000001;stroke-dasharray:5.0,5.0;" x1="1223.2" x2="1223.2" y1="110.0344" y2="1496.9047"/><line style="stroke:#181818;stroke-width:0.4000000000000001;stroke-dasharray:5.0,5.0;" x1="1308.8" x2="1308.8" y1="110.0344" y2="1496.9047"/><line style="stroke:#181818;stroke-width:0.4000000000000001;stroke-dasharray:5.0,5.0;" x1="1392" x2="1392" y1="110.0344" y2="1496.9047"/><text fill="#000000" font-family="sans-serif" font-size="11.2" lengthAdjust="spacing" textLength="28.8" x="4" y="107.2234">Client</text><ellipse cx="20.8" cy="53.9375" fill="#E2E2F0" rx="6.4" ry="6.4" style="stroke:#181818;stroke-width:0.4000000000000001;"/><path d="M20.8,60.3375 L20.8,81.9375 M10.4,66.7375 L31.2,66.7375 M20.8,81.9375 L10.4,93.9375 M20.8,81.9375 L31.2,93.9375 " fill="none" style="stroke:#181818;stroke-width:0.4000000000000001;"/><rect fill="#E2E2F0" height="40.9938" rx="2" ry="2" style="stroke:#181818;stroke-width:0.4000000000000001;" width="97.6" x="260.8" y="68.2406"/><text fill="#000000" font-family="sans-serif" font-size="11.2" lengthAdjust="spacing" textLength="39.2" x="290" y="85.9266">UserApi</text><text fill="#000000" font-family="sans-serif" font-size="11.2" font-style="italic" lengthAdjust="spacing" textLength="86.4" x="266.4" y="100.8234">&#171;routes /users/*&#187;</text><rect fill="#E2E2F0" height="40.9938" rx="2" ry="2" style="stroke:#181818;stroke-width:0.4000000000000001;" width="92" x="398.4" y="68.2406"/><text fill="#000000" font-family="sans-serif" font-size="11.2" lengthAdjust="spacing" textLength="39.2" x="424.8" y="85.9266">AuthApi</text><text fill="#000000" font-family="sans-serif" font-size="11.2" font-style="italic" lengthAdjust="spacing" textLength="80.8" x="404" y="100.8234">&#171;routes /auth/*&#187;</text><text fill="#000000" font-family="sans-serif" font-size="11.2" lengthAdjust="spacing" textLength="65.6" x="599.6" y="107.2234">UserRequest</text><ellipse cx="634.8" cy="82.3375" fill="#E2E2F0" rx="9.6" ry="9.6" style="stroke:#181818;stroke-width:0.4000000000000001;"/><line style="stroke:#181818;stroke-width:0.4000000000000001;" x1="625.2" x2="644.4" y1="93.5375" y2="93.5375"/><text fill="#000000" font-family="sans-serif" font-size="11.2" lengthAdjust="spacing" textLength="74.4" x="678" y="107.2234">UserResponse</text><ellipse cx="717.6" cy="82.3375" fill="#E2E2F0" rx="9.6" ry="9.6" style="stroke:#181818;stroke-width:0.4000000000000001;"/><line style="stroke:#181818;stroke-width:0.4000000000000001;" x1="708" x2="727.2" y1="93.5375" y2="93.5375"/><rect fill="#E2E2F0" height="26.0969" rx="2" ry="2" style="stroke:#181818;stroke-width:0.4000000000000001;" width="72" x="797.2" y="83.1375"/><text fill="#000000" font-family="sans-serif" font-size="11.2" lengthAdjust="spacing" textLength="60.8" x="802.8" y="100.8234">UserService</text><rect fill="#E2E2F0" height="26.0969" rx="2" ry="2" style="stroke:#181818;stroke-width:0.4000000000000001;" width="71.2" x="1042.4" y="83.1375"/><text fill="#000000" font-family="sans-serif" font-size="11.2" lengthAdjust="spacing" textLength="60" x="1048" y="100.8234">JWTService</text><text fill="#000000" font-family="sans-serif" font-size="11.2" lengthAdjust="spacing" textLength="23.2" x="1153.6" y="107.2234">User</text><ellipse cx="1167.6" cy="82.3375" fill="#E2E2F0" rx="9.6" ry="9.6" style="stroke:#181818;stroke-width:0.4000000000000001;"/><line style="stroke:#181818;stroke-width:0.4000000000000001;" x1="1158" x2="1177.2" y1="93.5375" y2="93.5375"/><text fill="#000000" font-family="sans-serif" font-size="11.2" lengthAdjust="spacing" textLength="62.4" x="1189.6" y="107.2234">LoginHistory</text><ellipse cx="1223.2" cy="82.3375" fill="#E2E2F0" rx="9.6" ry="9.6" style="stroke:#181818;stroke-width:0.4000000000000001;"/><line style="stroke:#181818;stroke-width:0.4000000000000001;" x1="1213.6" x2="1232.8" y1="93.5375" y2="93.5375"/><text fill="#000000" font-family="sans-serif" font-size="11.2" lengthAdjust="spacing" textLength="68" x="1272.8" y="107.2234">AccessToken</text><ellipse cx="1309.2" cy="82.3375" fill="#E2E2F0" rx="9.6" ry="9.6" style="stroke:#181818;stroke-width:0.4000000000000001;"/><polygon fill="#181818" points="1306,72.7375,1310.8,68.7375,1309.2,72.7375,1310.8,76.7375,1306,72.7375" style="stroke:#181818;stroke-width:0.8000000000000002;"/><text fill="#000000" font-family="sans-serif" font-size="11.2" lengthAdjust="spacing" textLength="72" x="1353.6" y="107.2234">RefreshToken</text><ellipse cx="1392" cy="82.3375" fill="#E2E2F0" rx="9.6" ry="9.6" style="stroke:#181818;stroke-width:0.4000000000000001;"/><polygon fill="#181818" points="1388.8,72.7375,1393.6,68.7375,1392,72.7375,1393.6,76.7375,1388.8,72.7375" style="stroke:#181818;stroke-width:0.8000000000000002;"/><rect fill="#008000" height="553.7188" style="stroke:#181818;stroke-width:0.8000000000000002;" width="8" x="1305.2" y="497.5266"/><rect fill="#008000" height="147.5641" style="stroke:#181818;stroke-width:0.8000000000000002;" width="8" x="1305.2" y="1243.8422"/><rect fill="#008000" height="769.3844" style="stroke:#181818;stroke-width:0.8000000000000002;" width="8" x="1388" y="688.0875"/><rect fill="#EEEEEE" height="2.4" style="stroke:#EEEEEE;stroke-width:0.8000000000000002;" width="1434.4" x="0" y="135.3508"/><line style="stroke:#000000;stroke-width:0.8000000000000002;" x1="0" x2="1434.4" y1="135.3508" y2="135.3508"/><line style="stroke:#000000;stroke-width:0.8000000000000002;" x1="0" x2="1434.4" y1="137.7508" y2="137.7508"/><rect fill="#EEEEEE" height="20.2328" style="stroke:#000000;stroke-width:1.6000000000000003;" width="60.8" x="686.8" y="126.0344"/><text fill="#000000" font-family="sans-serif" font-size="10.4" font-weight="bold" lengthAdjust="spacing" textLength="46.4" x="691.6" y="140.457">Registers</text><polygon fill="#181818" points="434.8,183.5328,442.8,186.7328,434.8,189.9328,438,186.7328" style="stroke:#181818;stroke-width:0.8000000000000002;"/><line style="stroke:#181818;stroke-width:0.8000000000000002;" x1="20.8" x2="439.6" y1="186.7328" y2="186.7328"/><text fill="#000000" font-family="sans-serif" font-size="10.4" font-weight="bold" lengthAdjust="spacing" textLength="104" x="26.4" y="168.6898">POST /auth/registers</text><text fill="#000000" font-family="sans-serif" font-size="10.4" lengthAdjust="spacing" textLength="3.2" x="130.4" y="168.6898">&#160;</text><text fill="#000000" font-family="sans-serif" font-size="10.4" lengthAdjust="spacing" textLength="258.4" x="26.4" y="182.5227">-d {username, email, password, confirm_password, role}</text><polygon fill="#181818" points="625.2,208.5656,633.2,211.7656,625.2,214.9656,628.4,211.7656" style="stroke:#181818;stroke-width:0.8000000000000002;"/><line style="stroke:#181818;stroke-width:0.8000000000000002;" x1="444.4" x2="630" y1="211.7656" y2="211.7656"/><text fill="#000000" font-family="sans-serif" font-size="10.4" lengthAdjust="spacing" textLength="171.2" x="450" y="207.5555">validate_data = validate(request data)</text><polygon fill="#181818" points="823.6,233.5984,831.6,236.7984,823.6,239.9984,826.8,236.7984" style="stroke:#181818;stroke-width:0.8000000000000002;"/><line style="stroke:#181818;stroke-width:0.8000000000000002;" x1="444.4" x2="828.4" y1="236.7984" y2="236.7984"/><text fill="#000000" font-family="sans-serif" font-size="10.4" lengthAdjust="spacing" textLength="29.6" x="450" y="232.5883">user =</text><text fill="#000000" font-family="sans-serif" font-size="10.4" font-weight="bold" lengthAdjust="spacing" textLength="59.2" x="482.8" y="232.5883">create_user</text><text fill="#000000" font-family="sans-serif" font-size="10.4" lengthAdjust="spacing" textLength="66.4" x="542" y="232.5883">(validate_data)</text><line style="stroke:#181818;stroke-width:0.8000000000000002;" x1="833.2" x2="866.8" y1="261.8313" y2="261.8313"/><line style="stroke:#181818;stroke-width:0.8000000000000002;" x1="866.8" x2="866.8" y1="261.8313" y2="272.2313"/><line style="stroke:#181818;stroke-width:0.8000000000000002;" x1="834" x2="866.8" y1="272.2313" y2="272.2313"/><polygon fill="#181818" points="842,269.0313,834,272.2313,842,275.4313,838.8,272.2313" style="stroke:#181818;stroke-width:0.8000000000000002;"/><text fill="#000000" font-family="sans-serif" font-size="10.4" lengthAdjust="spacing" textLength="92.8" x="838.8" y="257.6211">hashed_password =</text><text fill="#000000" font-family="sans-serif" font-size="10.4" font-weight="bold" lengthAdjust="spacing" textLength="137.6" x="934.8" y="257.6211">_hash_password(password)</text><polygon fill="#181818" points="1158,294.0641,1166,297.2641,1158,300.4641,1161.2,297.2641" style="stroke:#181818;stroke-width:0.8000000000000002;"/><line style="stroke:#181818;stroke-width:0.8000000000000002;stroke-dasharray:2.0,2.0;" x1="833.2" x2="1162.8" y1="297.2641" y2="297.2641"/><text fill="#000000" font-family="sans-serif" font-size="10.4" font-weight="bold" lengthAdjust="spacing" textLength="32" x="838.8" y="293.0539">create</text><text fill="#000000" font-family="sans-serif" font-size="10.4" lengthAdjust="spacing" textLength="194.4" x="874" y="293.0539">User(username, email, hashed_password)</text><polygon fill="#181818" points="708,319.0969,716,322.2969,708,325.4969,711.2,322.2969" style="stroke:#181818;stroke-width:0.8000000000000002;"/><line style="stroke:#181818;stroke-width:0.8000000000000002;" x1="444.4" x2="712.8" y1="322.2969" y2="322.2969"/><text fill="#000000" font-family="sans-serif" font-size="10.4" lengthAdjust="spacing" textLength="94.4" x="450" y="318.0867">response_data(user)</text><polygon fill="#181818" points="29.6,344.1297,21.6,347.3297,29.6,350.5297,26.4,347.3297" style="stroke:#181818;stroke-width:0.8000000000000002;"/><line style="stroke:#181818;stroke-width:0.8000000000000002;" x1="24.8" x2="443.6" y1="347.3297" y2="347.3297"/><text fill="#000000" font-family="sans-serif" font-size="10.4" font-weight="bold" lengthAdjust="spacing" textLength="60" x="34.4" y="343.1195">201 Created</text><text fill="#000000" font-family="sans-serif" font-size="10.4" lengthAdjust="spacing" textLength="109.6" x="97.6" y="343.1195">-d {id, username, email}</text><rect fill="#EEEEEE" height="2.4" style="stroke:#EEEEEE;stroke-width:0.8000000000000002;" width="1434.4" x="0" y="371.0461"/><line style="stroke:#000000;stroke-width:0.8000000000000002;" x1="0" x2="1434.4" y1="371.0461" y2="371.0461"/><line style="stroke:#000000;stroke-width:0.8000000000000002;" x1="0" x2="1434.4" y1="373.4461" y2="373.4461"/><rect fill="#EEEEEE" height="20.2328" style="stroke:#000000;stroke-width:1.6000000000000003;" width="43.2" x="695.6" y="361.7297"/><text fill="#000000" font-family="sans-serif" font-size="10.4" font-weight="bold" lengthAdjust="spacing" textLength="28.8" x="700.4" y="376.1523">Login</text><polygon fill="#181818" points="434.8,419.2281,442.8,422.4281,434.8,425.6281,438,422.4281" style="stroke:#181818;stroke-width:0.8000000000000002;"/><line style="stroke:#181818;stroke-width:0.8000000000000002;" x1="20.8" x2="439.6" y1="422.4281" y2="422.4281"/><text fill="#000000" font-family="sans-serif" font-size="10.4" font-weight="bold" lengthAdjust="spacing" textLength="86.4" x="26.4" y="404.3852">POST /auth/login</text><text fill="#000000" font-family="sans-serif" font-size="10.4" lengthAdjust="spacing" textLength="3.2" x="112.8" y="404.3852">&#160;</text><text fill="#000000" font-family="sans-serif" font-size="10.4" lengthAdjust="spacing" textLength="90.4" x="26.4" y="418.218">-d {login, password}</text><polygon fill="#181818" points="823.6,444.2609,831.6,447.4609,823.6,450.6609,826.8,447.4609" style="stroke:#181818;stroke-width:0.8000000000000002;"/><line style="stroke:#181818;stroke-width:0.8000000000000002;" x1="444.4" x2="828.4" y1="447.4609" y2="447.4609"/><text fill="#000000" font-family="sans-serif" font-size="10.4" lengthAdjust="spacing" textLength="29.6" x="450" y="443.2508">user =</text><text fill="#000000" font-family="sans-serif" font-size="10.4" font-weight="bold" lengthAdjust="spacing" textLength="63.2" x="482.8" y="443.2508">authenticate</text><text fill="#000000" font-family="sans-serif" font-size="10.4" lengthAdjust="spacing" textLength="141.6" x="546" y="443.2508">(credentials={login, password})</text><polygon fill="#181818" points="1068.4,469.2938,1076.4,472.4938,1068.4,475.6938,1071.6,472.4938" style="stroke:#181818;stroke-width:0.8000000000000002;"/><line style="stroke:#181818;stroke-width:0.8000000000000002;" x1="444.4" x2="1073.2" y1="472.4938" y2="472.4938"/><text fill="#000000" font-family="sans-serif" font-size="10.4" lengthAdjust="spacing" textLength="74.4" x="450" y="468.2836">access_token =</text><text fill="#000000" font-family="sans-serif" font-size="10.4" font-weight="bold" lengthAdjust="spacing" textLength="132" x="527.6" y="468.2836">write_token(user, 'access')</text><polygon fill="#181818" points="1295.6,494.3266,1303.6,497.5266,1295.6,500.7266,1298.8,497.5266" style="stroke:#181818;stroke-width:0.8000000000000002;"/><line style="stroke:#181818;stroke-width:0.8000000000000002;stroke-dasharray:2.0,2.0;" x1="1078" x2="1300.4" y1="497.5266" y2="497.5266"/><text fill="#000000" font-family="sans-serif" font-size="10.4" lengthAdjust="spacing" textLength="94.4" x="1083.6" y="493.3164">create access token</text><path d="M972.8,507.9266 L972.8,639.9266 L1182.4,639.9266 L1182.4,515.9266 L1174.4,507.9266 L972.8,507.9266 " fill="#FEFFDD" style="stroke:#181818;stroke-width:0.4000000000000001;"/><path d="M1174.4,507.9266 L1174.4,515.9266 L1182.4,515.9266 L1174.4,507.9266 " fill="#FEFFDD" style="stroke:#181818;stroke-width:0.4000000000000001;"/><text fill="#000000" font-family="sans-serif" font-size="10.4" lengthAdjust="spacing" textLength="3.2" x="977.6" y="523.1492">{</text><text fill="#000000" font-family="sans-serif" font-size="10.4" lengthAdjust="spacing" textLength="180" x="990.4" y="536.982">"header": {"alg":"HS256", "typ":"JWT"},</text><text fill="#000000" font-family="sans-serif" font-size="10.4" lengthAdjust="spacing" textLength="53.6" x="990.4" y="550.8148">"payload": {</text><text fill="#000000" font-family="sans-serif" font-size="10.4" lengthAdjust="spacing" textLength="66.4" x="1003.2" y="564.6477">"sub": "UUID",</text><text fill="#000000" font-family="sans-serif" font-size="10.4" lengthAdjust="spacing" textLength="53.6" x="1003.2" y="578.4805">"iat": now(),</text><text fill="#000000" font-family="sans-serif" font-size="10.4" lengthAdjust="spacing" textLength="103.2" x="1003.2" y="592.3133">"exp": now() + 10 sec,</text><text fill="#000000" font-family="sans-serif" font-size="10.4" lengthAdjust="spacing" textLength="64.8" x="1003.2" y="606.1461">"role": "guest"</text><text fill="#000000" font-family="sans-serif" font-size="10.4" lengthAdjust="spacing" textLength="3.2" x="990.4" y="619.9789">}</text><text fill="#000000" font-family="sans-serif" font-size="10.4" lengthAdjust="spacing" textLength="3.2" x="977.6" y="633.8117">}</text><polygon fill="#181818" points="1068.4,659.8547,1076.4,663.0547,1068.4,666.2547,1071.6,663.0547" style="stroke:#181818;stroke-width:0.8000000000000002;"/><line style="stroke:#181818;stroke-width:0.8000000000000002;" x1="444.4" x2="1073.2" y1="663.0547" y2="663.0547"/><text fill="#000000" font-family="sans-serif" font-size="10.4" lengthAdjust="spacing" textLength="72" x="450" y="658.8445">refresh_token =</text><text fill="#000000" font-family="sans-serif" font-size="10.4" font-weight="bold" lengthAdjust="spacing" textLength="133.6" x="525.2" y="658.8445">write_token(user, 'refresh')</text><polygon fill="#181818" points="1378.4,684.8875,1386.4,688.0875,1378.4,691.2875,1381.6,688.0875" style="stroke:#181818;stroke-width:0.8000000000000002;"/><line style="stroke:#181818;stroke-width:0.8000000000000002;stroke-dasharray:2.0,2.0;" x1="1078" x2="1383.2" y1="688.0875" y2="688.0875"/><text fill="#000000" font-family="sans-serif" font-size="10.4" lengthAdjust="spacing" textLength="92" x="1083.6" y="683.8773">create refresh token</text><path d="M972.8,698.4875 L972.8,816.8875 L1182.4,816.8875 L1182.4,706.4875 L1174.4,698.4875 L972.8,698.4875 " fill="#FEFFDD" style="stroke:#181818;stroke-width:0.4000000000000001;"/><path d="M1174.4,698.4875 L1174.4,706.4875 L1182.4,706.4875 L1174.4,698.4875 " fill="#FEFFDD" style="stroke:#181818;stroke-width:0.4000000000000001;"/><text fill="#000000" font-family="sans-serif" font-size="10.4" lengthAdjust="spacing" textLength="3.2" x="977.6" y="713.7102">{</text><text fill="#000000" font-family="sans-serif" font-size="10.4" lengthAdjust="spacing" textLength="180" x="990.4" y="727.543">"header": {"alg":"HS256", "typ":"JWT"},</text><text fill="#000000" font-family="sans-serif" font-size="10.4" lengthAdjust="spacing" textLength="53.6" x="990.4" y="741.3758">"payload": {</text><text fill="#000000" font-family="sans-serif" font-size="10.4" lengthAdjust="spacing" textLength="66.4" x="1003.2" y="755.2086">"sub": "UUID",</text><text fill="#000000" font-family="sans-serif" font-size="10.4" lengthAdjust="spacing" textLength="53.6" x="1003.2" y="769.0414">"iat": now(),</text><text fill="#000000" font-family="sans-serif" font-size="10.4" lengthAdjust="spacing" textLength="100.8" x="1003.2" y="782.8742">"exp": now() + 1 year,</text><text fill="#000000" font-family="sans-serif" font-size="10.4" lengthAdjust="spacing" textLength="3.2" x="990.4" y="796.707">}</text><text fill="#000000" font-family="sans-serif" font-size="10.4" lengthAdjust="spacing" textLength="3.2" x="977.6" y="810.5398">}</text><polygon fill="#181818" points="823.6,836.5828,831.6,839.7828,823.6,842.9828,826.8,839.7828" style="stroke:#181818;stroke-width:0.8000000000000002;"/><line style="stroke:#181818;stroke-width:0.8000000000000002;stroke-dasharray:2.0,2.0;" x1="444.4" x2="828.4" y1="839.7828" y2="839.7828"/><text fill="#000000" font-family="sans-serif" font-size="10.4" font-weight="bold" lengthAdjust="spacing" textLength="204" x="450" y="835.5727">save_login_history(user, &lt;request data&gt;)</text><polygon fill="#181818" points="1213.6,861.6156,1221.6,864.8156,1213.6,868.0156,1216.8,864.8156" style="stroke:#181818;stroke-width:0.8000000000000002;"/><line style="stroke:#181818;stroke-width:0.8000000000000002;stroke-dasharray:2.0,2.0;" x1="833.2" x2="1218.4" y1="864.8156" y2="864.8156"/><text fill="#000000" font-family="sans-serif" font-size="10.4" lengthAdjust="spacing" textLength="116" x="838.8" y="860.6055">create LoginHistory(data)</text><polygon fill="#181818" points="29.6,886.6484,21.6,889.8484,29.6,893.0484,26.4,889.8484" style="stroke:#181818;stroke-width:0.8000000000000002;"/><line style="stroke:#181818;stroke-width:0.8000000000000002;" x1="24.8" x2="443.6" y1="889.8484" y2="889.8484"/><text fill="#000000" font-family="sans-serif" font-size="10.4" lengthAdjust="spacing" textLength="185.6" x="34.4" y="885.6383">200 OK -d {access token, refresh token}</text><rect fill="#EEEEEE" height="2.4" style="stroke:#EEEEEE;stroke-width:0.8000000000000002;" width="1434.4" x="0" y="913.5648"/><line style="stroke:#000000;stroke-width:0.8000000000000002;" x1="0" x2="1434.4" y1="913.5648" y2="913.5648"/><line style="stroke:#000000;stroke-width:0.8000000000000002;" x1="0" x2="1434.4" y1="915.9648" y2="915.9648"/><rect fill="#EEEEEE" height="20.2328" style="stroke:#000000;stroke-width:1.6000000000000003;" width="60" x="687.2" y="904.2484"/><text fill="#000000" font-family="sans-serif" font-size="10.4" font-weight="bold" lengthAdjust="spacing" textLength="45.6" x="692" y="918.6711">Requests</text><polygon fill="#181818" points="300,947.9141,308,951.1141,300,954.3141,303.2,951.1141" style="stroke:#181818;stroke-width:0.8000000000000002;"/><line style="stroke:#181818;stroke-width:0.8000000000000002;" x1="20.8" x2="304.8" y1="951.1141" y2="951.1141"/><text fill="#000000" font-family="sans-serif" font-size="10.4" font-weight="bold" lengthAdjust="spacing" textLength="72.8" x="26.4" y="946.9039">GET /users/me</text><text fill="#000000" font-family="sans-serif" font-size="10.4" lengthAdjust="spacing" textLength="193.6" x="102.4" y="946.9039">-h Authorization "bearer &lt;access_token&gt;"</text><polygon fill="#181818" points="1068.4,972.9469,1076.4,976.1469,1068.4,979.3469,1071.6,976.1469" style="stroke:#181818;stroke-width:0.8000000000000002;"/><line style="stroke:#181818;stroke-width:0.8000000000000002;" x1="309.6" x2="1073.2" y1="976.1469" y2="976.1469"/><text fill="#000000" font-family="sans-serif" font-size="10.4" lengthAdjust="spacing" textLength="29.6" x="315.2" y="971.9367">user =</text><text fill="#000000" font-family="sans-serif" font-size="10.4" font-weight="bold" lengthAdjust="spacing" textLength="130.4" x="348" y="971.9367">read_token(access_token)</text><polygon fill="#181818" points="708,997.9797,716,1001.1797,708,1004.3797,711.2,1001.1797" style="stroke:#181818;stroke-width:0.8000000000000002;"/><line style="stroke:#181818;stroke-width:0.8000000000000002;" x1="309.6" x2="712.8" y1="1001.1797" y2="1001.1797"/><text fill="#000000" font-family="sans-serif" font-size="10.4" lengthAdjust="spacing" textLength="94.4" x="315.2" y="996.9695">response_data(user)</text><polygon fill="#181818" points="29.6,1023.0125,21.6,1026.2125,29.6,1029.4125,26.4,1026.2125" style="stroke:#181818;stroke-width:0.8000000000000002;"/><line style="stroke:#181818;stroke-width:0.8000000000000002;" x1="24.8" x2="308.8" y1="1026.2125" y2="1026.2125"/><text fill="#000000" font-family="sans-serif" font-size="10.4" lengthAdjust="spacing" textLength="124.8" x="34.4" y="1022.0023">200 OK -d {response_data}</text><polygon fill="#181818" points="1299.6,1048.0453,1307.6,1051.2453,1299.6,1054.4453,1302.8,1051.2453" style="stroke:#181818;stroke-width:0.8000000000000002;"/><line style="stroke:#181818;stroke-width:0.8000000000000002;stroke-dasharray:2.0,2.0;" x1="1189.2" x2="1304.4" y1="1051.2453" y2="1051.2453"/><text fill="#000000" font-family="sans-serif" font-size="10.4" font-weight="bold" lengthAdjust="spacing" textLength="100.8" x="1194.8" y="1047.0352">Expire access token</text><line style="stroke:#A80036;stroke-width:1.6000000000000003;" x1="1302" x2="1316.4" y1="1044.0453" y2="1058.4453"/><line style="stroke:#A80036;stroke-width:1.6000000000000003;" x1="1302" x2="1316.4" y1="1058.4453" y2="1044.0453"/><polygon fill="#181818" points="300,1093.0781,308,1096.2781,300,1099.4781,303.2,1096.2781" style="stroke:#181818;stroke-width:0.8000000000000002;"/><line style="stroke:#181818;stroke-width:0.8000000000000002;" x1="20.8" x2="304.8" y1="1096.2781" y2="1096.2781"/><text fill="#000000" font-family="sans-serif" font-size="10.4" font-weight="bold" lengthAdjust="spacing" textLength="72.8" x="26.4" y="1092.068">GET /users/me</text><text fill="#000000" font-family="sans-serif" font-size="10.4" lengthAdjust="spacing" textLength="193.6" x="102.4" y="1092.068">-h Authorization "bearer &lt;access_token&gt;"</text><polygon fill="#181818" points="1068.4,1118.1109,1076.4,1121.3109,1068.4,1124.5109,1071.6,1121.3109" style="stroke:#181818;stroke-width:0.8000000000000002;"/><line style="stroke:#181818;stroke-width:0.8000000000000002;" x1="309.6" x2="1073.2" y1="1121.3109" y2="1121.3109"/><text fill="#000000" font-family="sans-serif" font-size="10.4" lengthAdjust="spacing" textLength="29.6" x="315.2" y="1117.1008">user =</text><text fill="#000000" font-family="sans-serif" font-size="10.4" font-weight="bold" lengthAdjust="spacing" textLength="130.4" x="348" y="1117.1008">read_token(access_token)</text><polygon fill="#181818" points="29.6,1143.1438,21.6,1146.3438,29.6,1149.5438,26.4,1146.3438" style="stroke:#181818;stroke-width:0.8000000000000002;"/><line style="stroke:#181818;stroke-width:0.8000000000000002;" x1="24.8" x2="308.8" y1="1146.3438" y2="1146.3438"/><text fill="#000000" font-family="sans-serif" font-size="10.4" lengthAdjust="spacing" textLength="163.2" x="34.4" y="1142.1336">401 UNAUTHORIZED -d {message}</text><rect fill="#EEEEEE" height="2.4" style="stroke:#EEEEEE;stroke-width:0.8000000000000002;" width="1434.4" x="0" y="1170.0602"/><line style="stroke:#000000;stroke-width:0.8000000000000002;" x1="0" x2="1434.4" y1="1170.0602" y2="1170.0602"/><line style="stroke:#000000;stroke-width:0.8000000000000002;" x1="0" x2="1434.4" y1="1172.4602" y2="1172.4602"/><rect fill="#EEEEEE" height="20.2328" style="stroke:#000000;stroke-width:1.6000000000000003;" width="120.8" x="656.8" y="1160.7438"/><text fill="#000000" font-family="sans-serif" font-size="10.4" font-weight="bold" lengthAdjust="spacing" textLength="106.4" x="661.6" y="1175.1664">Refresh access token</text><polygon fill="#181818" points="434.8,1204.4094,442.8,1207.6094,434.8,1210.8094,438,1207.6094" style="stroke:#181818;stroke-width:0.8000000000000002;"/><line style="stroke:#181818;stroke-width:0.8000000000000002;" x1="20.8" x2="439.6" y1="1207.6094" y2="1207.6094"/><text fill="#000000" font-family="sans-serif" font-size="10.4" font-weight="bold" lengthAdjust="spacing" textLength="129.6" x="26.4" y="1203.3992">POST /auth/refresh_token</text><text fill="#000000" font-family="sans-serif" font-size="10.4" lengthAdjust="spacing" textLength="191.2" x="159.2" y="1203.3992">-h Authorization "bearer &lt;refresh_token&gt;"</text><polygon fill="#181818" points="1068.4,1229.4422,1076.4,1232.6422,1068.4,1235.8422,1071.6,1232.6422" style="stroke:#181818;stroke-width:0.8000000000000002;"/><line style="stroke:#181818;stroke-width:0.8000000000000002;stroke-dasharray:2.0,2.0;" x1="444.4" x2="1073.2" y1="1232.6422" y2="1232.6422"/><text fill="#000000" font-family="sans-serif" font-size="10.4" lengthAdjust="spacing" textLength="74.4" x="450" y="1228.432">access_token =</text><text fill="#000000" font-family="sans-serif" font-size="10.4" font-weight="bold" lengthAdjust="spacing" textLength="87.2" x="527.6" y="1228.432">write_token(user)</text><polygon fill="#181818" points="1295.6,1240.6422,1303.6,1243.8422,1295.6,1247.0422,1298.8,1243.8422" style="stroke:#181818;stroke-width:0.8000000000000002;"/><line style="stroke:#181818;stroke-width:0.8000000000000002;stroke-dasharray:2.0,2.0;" x1="1078" x2="1300.4" y1="1243.8422" y2="1243.8422"/><polygon fill="#181818" points="29.6,1265.675,21.6,1268.875,29.6,1272.075,26.4,1268.875" style="stroke:#181818;stroke-width:0.8000000000000002;"/><line style="stroke:#181818;stroke-width:0.8000000000000002;" x1="24.8" x2="443.6" y1="1268.875" y2="1268.875"/><text fill="#000000" font-family="sans-serif" font-size="10.4" lengthAdjust="spacing" textLength="121.6" x="34.4" y="1264.6648">200 OK -d {access_token}</text><rect fill="#EEEEEE" height="2.4" style="stroke:#EEEEEE;stroke-width:0.8000000000000002;" width="1434.4" x="0" y="1292.5914"/><line style="stroke:#000000;stroke-width:0.8000000000000002;" x1="0" x2="1434.4" y1="1292.5914" y2="1292.5914"/><line style="stroke:#000000;stroke-width:0.8000000000000002;" x1="0" x2="1434.4" y1="1294.9914" y2="1294.9914"/><rect fill="#EEEEEE" height="20.2328" style="stroke:#000000;stroke-width:1.6000000000000003;" width="49.6" x="692.4" y="1283.275"/><text fill="#000000" font-family="sans-serif" font-size="10.4" font-weight="bold" lengthAdjust="spacing" textLength="35.2" x="697.2" y="1297.6977">Logout</text><polygon fill="#181818" points="434.8,1326.9406,442.8,1330.1406,434.8,1333.3406,438,1330.1406" style="stroke:#181818;stroke-width:0.8000000000000002;"/><line style="stroke:#181818;stroke-width:0.8000000000000002;" x1="20.8" x2="439.6" y1="1330.1406" y2="1330.1406"/><text fill="#000000" font-family="sans-serif" font-size="10.4" font-weight="bold" lengthAdjust="spacing" textLength="92.8" x="26.4" y="1325.9305">POST /auth/logout</text><text fill="#000000" font-family="sans-serif" font-size="10.4" lengthAdjust="spacing" textLength="193.6" x="122.4" y="1325.9305">-h Authorization "bearer &lt;access_token&gt;"</text><polygon fill="#181818" points="1068.4,1351.9734,1076.4,1355.1734,1068.4,1358.3734,1071.6,1355.1734" style="stroke:#181818;stroke-width:0.8000000000000002;"/><line style="stroke:#181818;stroke-width:0.8000000000000002;stroke-dasharray:2.0,2.0;" x1="444.4" x2="1073.2" y1="1355.1734" y2="1355.1734"/><text fill="#000000" font-family="sans-serif" font-size="10.4" lengthAdjust="spacing" textLength="29.6" x="450" y="1350.9633">user =</text><text fill="#000000" font-family="sans-serif" font-size="10.4" font-weight="bold" lengthAdjust="spacing" textLength="130.4" x="482.8" y="1350.9633">read_token(access_token)</text><polygon fill="#181818" points="1068.4,1377.0063,1076.4,1380.2063,1068.4,1383.4063,1071.6,1380.2063" style="stroke:#181818;stroke-width:0.8000000000000002;"/><line style="stroke:#181818;stroke-width:0.8000000000000002;stroke-dasharray:2.0,2.0;" x1="444.4" x2="1073.2" y1="1380.2063" y2="1380.2063"/><text fill="#000000" font-family="sans-serif" font-size="10.4" font-weight="bold" lengthAdjust="spacing" textLength="172" x="450" y="1375.9961">destroy_token(access_token, user)</text><polygon fill="#181818" points="1299.6,1388.2063,1307.6,1391.4063,1299.6,1394.6063,1302.8,1391.4063" style="stroke:#181818;stroke-width:0.8000000000000002;"/><line style="stroke:#181818;stroke-width:0.8000000000000002;stroke-dasharray:2.0,2.0;" x1="1078" x2="1304.4" y1="1391.4063" y2="1391.4063"/><line style="stroke:#A80036;stroke-width:1.6000000000000003;" x1="1302" x2="1316.4" y1="1384.2063" y2="1398.6063"/><line style="stroke:#A80036;stroke-width:1.6000000000000003;" x1="1302" x2="1316.4" y1="1398.6063" y2="1384.2063"/><path d="M448,1401.8063 L448,1423.4063 L684,1423.4063 L684,1409.8063 L676,1401.8063 L448,1401.8063 " fill="#FEFFDD" style="stroke:#181818;stroke-width:0.4000000000000001;"/><path d="M676,1401.8063 L676,1409.8063 L684,1409.8063 L676,1401.8063 " fill="#FEFFDD" style="stroke:#181818;stroke-width:0.4000000000000001;"/><text fill="#000000" font-family="sans-serif" font-size="10.4" lengthAdjust="spacing" textLength="219.2" x="452.8" y="1417.0289">? &#1053;&#1077;&#1087;&#1086;&#1085;&#1103;&#1090;&#1085;&#1086; &#1086;&#1090;&#1082;&#1091;&#1076;&#1072; &#1084;&#1099; &#1073;&#1077;&#1088;&#1077;&#1084; refresh_token ?</text><polygon fill="#181818" points="1068.4,1443.0719,1076.4,1446.2719,1068.4,1449.4719,1071.6,1446.2719" style="stroke:#181818;stroke-width:0.8000000000000002;"/><line style="stroke:#181818;stroke-width:0.8000000000000002;stroke-dasharray:2.0,2.0;" x1="444.4" x2="1073.2" y1="1446.2719" y2="1446.2719"/><text fill="#000000" font-family="sans-serif" font-size="10.4" font-weight="bold" lengthAdjust="spacing" textLength="173.6" x="450" y="1442.0617">destroy_token(refresh_token, user)</text><polygon fill="#181818" points="1382.4,1454.2719,1390.4,1457.4719,1382.4,1460.6719,1385.6,1457.4719" style="stroke:#181818;stroke-width:0.8000000000000002;"/><line style="stroke:#181818;stroke-width:0.8000000000000002;stroke-dasharray:2.0,2.0;" x1="1078" x2="1387.2" y1="1457.4719" y2="1457.4719"/><line style="stroke:#A80036;stroke-width:1.6000000000000003;" x1="1384.8" x2="1399.2" y1="1450.2719" y2="1464.6719"/><line style="stroke:#A80036;stroke-width:1.6000000000000003;" x1="1384.8" x2="1399.2" y1="1464.6719" y2="1450.2719"/><polygon fill="#181818" points="29.6,1479.3047,21.6,1482.5047,29.6,1485.7047,26.4,1482.5047" style="stroke:#181818;stroke-width:0.8000000000000002;"/><line style="stroke:#181818;stroke-width:0.8000000000000002;" x1="24.8" x2="443.6" y1="1482.5047" y2="1482.5047"/><text fill="#000000" font-family="sans-serif" font-size="10.4" lengthAdjust="spacing" textLength="86.4" x="34.4" y="1478.2945">204 NO CONTENT</text><text fill="#888888" font-family="sans-serif" font-size="8" lengthAdjust="spacing" textLength="68" x="1365.6" y="12.6328">25 &#1092;&#1077;&#1074;&#1088;&#1072;&#1083;&#1103; 2024</text><!--SRC=[pLRDRkCs4BxpAGOgYjYgNMU3RGz6xC1DWcRRpGyI6qMB0WOZCJQnigWbQIVUn43H7dle4_GTMg1xANRJLr3Ug4DAiYdRoNflwuCXVHeEPxwP-SYjeTQ9QZOQIKHZFHv5NmPYr53izPZ50Qk7d0ua7H4ov263Ao7qfRWXwXMF4ueuACqa4tgQi3EXkEOYXakXjHWvDcTKQXxm1FsVqJ3ayG1sjftltuYR0d-sJROSvtaKnqmfEc2TY0zYa6p2f687NBB0x8UXCHeo2P-7LBEA5uPmZ3_u4NzUbMYk8mQTiHvs4euUvOG7Z10QQ25XF-8ireHWJk3XTuyaYrYXXzPcqUwk56FD53J6YAY6tswNx0hd2pkAY3LZSGY6i6o7Ys38HbHv26DOKxl1kSbHwJAa4X4hjhmwYrsj1fb_AU7V_T0juBAROn6oI66mM30za4orswM0YkUNOi3Z8wwGf-d2HI1YBKK4dG0ZKLtnYiLpx9nTeRjX1f9M2u41DmsYeDKY92CRwks2i2Ru_jdfHJVdInRMlWy_n_KGRWtTCHsn6Y1jFAf1GfMw5ZAi0UvvnUMelq0m0ZOZHIrm5uVT9anen4r_zF6FGcl-Nf6P1HYykhmyPx099X9SvVk1PCQBUVVzIibhbJXBLZmCgHgoS1wlTTOtu1og50zLto-xodqrv_iZGmQeh12qj4jrbO-ijPeuHjcJ3TqwAXbdnJ8xxcm_WtsxQuZRch9mP7jfvvcjjssPZMeT6SjvdUtRehgp3vV1E35z6bWoAiXAQ5vff5ehtafvBSQY2TJsS5-RVhLUhoN7MjftoqWDjZARBLEInL9R4MS2cf2L9VS8reEH63ung6C9d-74uRTO82vGoDmvlIM0Fo-JCwy9jnwD1bxJExhO-UfhhmOUoYo-uWflLiji4pgD10sDiGKigCQN27Yztei3hxQ0ETK8n-AwKdLGTfCKA7o1-eiI6JYVpLGPPmCp99x5PsHczS3aG1xZLcPQy3IvkT4wTbqjcTERso_pwzf-yWJ3b55PUuh8vQRtVKKdh6_RkZ_C13bdSDTLh_OwtN1LVCwZ2rOowLet-plRst3wlHrvjx5hvJhCSgctWImhVNw4cYI-FUmM1-Z825XzQBL1IFw6sdk3TudCOC5stRd4iwauXfSwRAu5c5EOzvMxic1ZO_NBezwjBw9s62Yjm9ptLZJ0zmzl4hoLb5G0WmYH5occwsI0tDtTVK9qhM7WEQf_xwJJwnwTdh_uwV30SZ7AxcD5vRDcSBFUyBnt9EB934kMcA8xAXybw4_B-9EAlT60z9s9m273s-2cfo6QVaoH7sDWaoe_jjRtyqvTiouxy3z0tvf69vaGIpuOpk_9P0_IFzEtwN_fVVh-uO-7NzFtwJsaz_ZmxyDlwJ_fNv2-U_WTqh_Jjm-_eE6xfTDaRw6Qc-PISl1eCgKBR95D-LQxjWkUmyafx9-UT0zFkly3]--></g></svg>